<?xml version="1.0" encoding="utf-8"?>
<!-- Generator: Adobe Illustrator 17.0.2, SVG Export Plug-In . SVG Version: 6.00 Build 0)  -->
<!DOCTYPE svg PUBLIC "-//W3C//DTD SVG 1.1//EN" "http://www.w3.org/Graphics/SVG/1.1/DTD/svg11.dtd">
<svg version="1.1" id="Layer_1" xmlns="http://www.w3.org/2000/svg" xmlns:xlink="http://www.w3.org/1999/xlink" x="0px" y="0px"
	 width="757.095px" height="343.953px" viewBox="0 0 757.095 343.953" enable-background="new 0 0 757.095 343.953"
	 xml:space="preserve">
<path d="M8.615,206.762c-3.02,0-8.615-9.482-8.615-15.522c0-11.432,17.026-54.532,21.754-70.488l-15.943-3.658l-0.217-4.741
	c2.37-1.287,14.873-8.832,16.16-8.832c4.104,0,12.948,8.194,12.948,17.026c0,10.565-9.711,36.423-14.019,48.708
	c-1.72,4.524-5.378,15.089-5.378,17.893c0,1.504,4.728,2.574,6.245,2.574c5.391,0,12.285-17.014,15.076-25.858h4.32l1.72,1.937
	C37.71,184.128,27.578,206.762,8.615,206.762z M33.836,83.908c-5.391,0-9.915-7.111-9.915-9.698
	c0-8.194,11.852-16.389,14.656-16.389c5.378,0,9.482,7.111,9.482,9.698C48.058,75.497,36.423,83.908,33.836,83.908z"/>
<path d="M130.373,63.428c0,0-28.662,1.72-31.465,4.524c-6.041,6.041-8.832,30.395-10.348,38.373h22.417l1.72,3.008l-2.154,7.761
	H86.622l-10.565,67.672c-3.02,18.543-6.041,37.085-17.46,52.379c-4.741,6.474-18.963,18.543-31.249,18.543
	c-4.32,0-11.202-7.111-12.069-10.998l1.504-3.441c0,0,28.458-1.733,31.465-4.524c4.32-4.32,6.895-16.822,7.761-21.997l15.956-97.633
	H56.661l-0.217-4.958l18.326-11.419c2.358-11.635,6.895-24.138,13.993-33.199c6.703-8.615,19.409-18.53,31.058-18.53
	c4.078,0,11.202,7.111,12.273,10.986L130.373,63.428z"/>
<path d="M491.582,29.822c-2.906,13.088-15.268,26.903-27.629,23.985c-10.17-2.166-8.73-13.076-7.264-22.532
	c1.44-8.003-1.466-14.541-10.183-15.268c-15.28-2.179-37.812,11.635-79.983,48.708c-27.629,24.737-58.904,57.451-87.986,83.627
	c17.447,24.724,38.538,59.617,29.082,103.98c-11.635,53.08-64.715,91.631-119.26,91.631c-26.164,0-39.979-13.101-43.623-20.365
	c-2.906-5.824-3.632-10.909-1.453-12.362c2.192,0,1.453,3.632,5.811,9.444c5.837,7.277,17.46,14.541,39.265,14.541
	c38.551,0,72.005-26.903,83.628-65.429c10.183-35.633,2.179-73.445-13.088-103.993c-33.453,27.629-75.624,55.272-112.71,55.272
	c-15.981,0-30.522-10.183-26.177-32.001c5.085-23.997,30.548-43.623,61.822-62.536c15.981-9.443,31.249-16.72,46.529-25.45
	c-3.645-13.088-5.824-29.809-2.918-43.623c5.11-24.724,26.189-53.08,54.545-53.08c14.541,0,24.724,13.815,17.447,35.633
	c-8.73,22.544-26.903,39.991-50.174,55.985c5.824,15.994,16.72,29.809,26.903,45.803c29.809-27.617,59.63-59.617,87.26-85.067
	C397.785,23.997,431.225,0,462.5,0C483.591,0,495.227,12.375,491.582,29.822z M254.54,158.525
	c-9.456-16.733-18.173-34.18-23.985-51.627c-16.733,11.635-30.548,20.352-42.91,30.535c-19.639,16.007-30.535,29.809-33.454,45.089
	c-2.906,13.815,7.264,18.9,16.72,18.9C189.098,201.422,223.278,183.249,254.54,158.525z M243.631,56.725
	c-2.179,11.635-1.453,22.544,2.179,33.441c18.9-13.802,36.359-30.535,43.636-50.888c4.359-13.088,0-23.271-10.909-23.271
	C263.27,16.007,248.002,35.646,243.631,56.725z"/>
<path d="M428.32,206.762c-3.237,0-12.069-8.411-12.069-17.676c0-3.02,2.587-9.915,3.237-12.935l-2.37-1.083
	c-3.02,9.061-14.439,31.695-32.549,31.695c-3.02,0-12.298-8.411-12.298-17.676c0-12.285,6.474-34.486,9.711-46.771
	c1.516-5.607,4.524-16.606,4.524-18.963c0-1.72-4.524-2.6-6.245-2.6c-5.391,0-12.948,19.626-14.872,25.871h-4.091l-2.154-1.72
	c5.595-19.613,16.363-41.38,34.269-41.38c3.441,0,8.602,10.985,8.602,15.726c0,10.348-7.532,35.136-11.202,49.142
	c-1.504,5.607-3.441,14.656-3.441,17.893c0,1.937,3.441,3.441,8.399,3.441c13.369,0,28.878-60.994,36.639-83.181l9.915-3.02
	l3.67,3.02c0,0-7.965,32.753-11.432,48.696c-2.37,9.915-4.957,20.48-4.957,30.612c0,3.67,6.257,4.091,9.061,4.091
	c13.152,0,35.123-49.779,35.123-62.498c0-7.111-8.615-8.628-14.006-10.132l-0.433-5.174c2.587-1.3,17.46-8.615,18.759-8.615
	c1.504,0,11.215,8.615,11.215,18.109C489.326,145.118,454.19,206.762,428.32,206.762z"/>
<path d="M543.578,206.979c-3.02,0-8.399-9.915-8.399-15.739c0-10.132,9.482-33.403,16.16-52.379
	c1.287-3.658,4.091-11.635,4.091-14.872c0-1.72-6.461-3.237-9.698-3.237c-20.697,0-38.373,53.895-49.358,83.207l-9.915,3.02
	l-3.658-3.02l40.297-137.727l-15.306-2.804l-0.433-5.391l31.695-9.048l3.008,4.091c-7.965,28.891-15.51,53.678-26.941,81.474
	l2.804,0.867c8.411-15.956,20.467-31.899,37.939-31.899c7.545,0,14.006,10.769,14.006,17.447c0,10.998-10.132,36.436-14.872,50.008
	c-1.3,3.887-4.524,13.585-4.524,15.956c0,1.937,4.524,2.791,6.258,2.791c5.378,0,12.923-19.18,14.872-25.858h4.295l1.95,1.937
	C572.24,186.065,561.254,206.979,543.578,206.979z"/>
<path d="M600.876,164.082c0,2.37-0.433,10.132-0.433,12.502c0,2.371,0.217,8.182,1.72,9.482c3.02,3.02,10.986,4.091,16.172,4.091
	c12.923,0,21.117-16.16,24.991-26.291h4.091l2.154,1.937c-5.811,18.109-18.097,40.96-39.864,40.96
	c-18.747,0-23.921-15.956-23.921-31.899c0-27.808,17.88-71.342,50.862-71.342c11.202,0,18.11,8.398,18.11,19.18
	C654.759,148.559,620.706,158.258,600.876,164.082z M615.099,121.835c-7.111,7.328-10.998,24.367-12.719,33.619
	c15.089-4.741,37.506-13.139,37.506-32.103c0-3.67-4.957-4.32-11.215-4.32C624.784,119.031,617.903,119.031,615.099,121.835z"/>
<path d="M722.825,206.762c-3.887,0-8.411-11.648-8.411-15.522c0-10.132,12.286-41.164,16.593-53.016
	c1.517-4.537,3.67-9.698,3.67-14.452c0-1.504-6.678-3.02-9.482-3.02c-21.334,0-38.793,55.616-49.358,83.207l-10.132,2.804
	l-3.657-2.804c4.741-15.522,9.265-32.115,13.356-47.421c3.237-11.852,6.907-23.704,9.494-35.569l-16.389-3.874l-0.217-4.741
	c2.37-1.287,15.089-8.832,16.376-8.832c3.887,0,12.948,8.615,12.948,16.593c0,4.741-1.516,9.698-3.237,14.439l2.804,0.867
	c7.965-14.872,19.83-31.899,37.927-31.899c7.328,0,14.006,10.552,14.006,17.447c0,11.215-10.119,36.652-14.656,50.008
	c-1.504,3.887-4.741,13.152-4.741,15.739c0,2.154,4.32,3.008,6.245,3.008c5.607,0,13.152-19.613,14.872-25.858h4.091l2.167,1.937
	C752.137,184.562,741.572,206.762,722.825,206.762z"/>
</svg>
